<?xml version="1.0" encoding="utf-8"?>
<!-- Generator: Adobe Illustrator 28.0.0, SVG Export Plug-In . SVG Version: 6.00 Build 0)  -->
<svg version="1.1" id="Layer_1" xmlns="http://www.w3.org/2000/svg" xmlns:xlink="http://www.w3.org/1999/xlink" x="0px" y="0px"
	 viewBox="0 0 1080 1080" style="enable-background:new 0 0 1080 1080;" xml:space="preserve">
<style type="text/css">
	.st0{fill:#BE1E2D;}
</style>
<g>
	<g>
		<g>
			<path class="st0" d="M232.11,459.8c0.11,50.12-42.29,55.34-4.7,100.24C201.83,515.14,251.43,499.47,232.11,459.8z"/>
			<path class="st0" d="M241.22,416.43c41.78,66.36-0.55,87.11-7.92,136.27C220.46,505.18,267.16,498.63,241.22,416.43z"/>
			<path class="st0" d="M267.16,459.8c37.96,72.2-30.46,90.17-36.32,148.07C217.18,550.24,287.64,537.68,267.16,459.8z"/>
			<path class="st0" d="M286,503.54c18.02,48.88-13.93,49.15-25.94,79.19C257.6,548.33,293.37,547.51,286,503.54z"/>
			<path class="st0" d="M253.23,663.57v-38.78h-0.06c2.67-0.68,4.62-3.09,4.62-5.97c0-3.41-2.76-6.17-6.17-6.17
				c-3.39,0-6.16,2.76-6.16,6.17c0,3.01,2.18,5.54,5.03,6.06v38.69c-3.63-16.08-8.95-30.73-17.2-42.87
				c9.63-12.37,15.85-26.11,18.56-41.24c4.67,16.45,11.02,30.92,20.22,42.06C264.22,629.54,258.36,645.13,253.23,663.57z"/>
		</g>
	</g>
	<g>
		<g>
			<g>
				<path class="st0" d="M365.19,574.63h-19.27V440.09l91.46,95.8v-87.3h19.27v133.78l-91.46-95.8V574.63z"/>
				<path class="st0" d="M499.53,465.04c12.47-12.47,28.09-18.71,46.86-18.71c18.77,0,34.39,6.24,46.86,18.71
					c12.47,12.47,18.71,28.03,18.71,46.67c0,18.65-6.24,34.2-18.71,46.67c-12.47,12.47-28.09,18.71-46.86,18.71
					c-18.77,0-34.39-6.24-46.86-18.71c-12.47-12.47-18.71-28.03-18.71-46.67C480.83,493.07,487.06,477.51,499.53,465.04z
					 M513.14,546c8.69,8.88,19.78,13.32,33.26,13.32c13.48,0,24.56-4.44,33.26-13.32s13.04-20.31,13.04-34.3
					c0-13.98-4.35-25.41-13.04-34.3c-8.69-8.88-19.78-13.32-33.26-13.32c-13.48,0-24.56,4.44-33.26,13.32
					c-8.69,8.88-13.04,20.31-13.04,34.3C500.1,525.69,504.44,537.12,513.14,546z"/>
				<path class="st0" d="M648.81,465.04c12.47-12.47,28.09-18.71,46.86-18.71c18.77,0,34.39,6.24,46.86,18.71
					c12.47,12.47,18.71,28.03,18.71,46.67c0,18.65-6.24,34.2-18.71,46.67c-12.47,12.47-28.09,18.71-46.86,18.71
					c-18.77,0-34.39-6.24-46.86-18.71c-12.47-12.47-18.71-28.03-18.71-46.67C630.1,493.07,636.34,477.51,648.81,465.04z M662.41,546
					c8.69,8.88,19.78,13.32,33.26,13.32c13.48,0,24.56-4.44,33.26-13.32s13.04-20.31,13.04-34.3c0-13.98-4.35-25.41-13.04-34.3
					c-8.69-8.88-19.78-13.32-33.26-13.32c-13.48,0-24.56,4.44-33.26,13.32c-8.69,8.88-13.04,20.31-13.04,34.3
					C649.37,525.69,653.72,537.12,662.41,546z"/>
				<path class="st0" d="M785.42,448.6h22.49c14.86,0,25.95,2.46,33.26,7.37c9.95,6.68,14.93,16.57,14.93,29.67
					c0,8.95-2.55,16.57-7.65,22.86c-5.1,6.3-11.88,10.39-20.31,12.28l39.3,53.85h-23.24l-36.09-51.59h-3.4v51.59h-19.27V448.6z
					 M804.7,466.36v40.06h6.05c1.64,0,3.27-0.06,4.91-0.19c1.64-0.12,3.87-0.57,6.71-1.32s5.29-1.79,7.37-3.12
					c2.08-1.32,3.9-3.37,5.48-6.14c1.57-2.77,2.36-6.05,2.36-9.83c0-12.97-8.76-19.46-26.26-19.46H804.7z"/>
			</g>
			<g>
				<path class="st0" d="M386.99,602.88v8.73c-2.49-2.53-5.19-4.49-8.12-5.88c-3.55-1.64-7.12-2.47-10.73-2.47
					c-7.15,0-13.11,2.55-17.87,7.64c-4.76,5.09-7.14,11.34-7.14,18.74c0,7.97,2.6,14.27,7.79,18.88c5.19,4.62,10.96,6.93,17.31,6.93
					c3.98,0,7.84-0.98,11.57-2.94c2.61-1.33,5.01-3.1,7.19-5.31v8.73c-5.66,4.11-11.91,6.17-18.76,6.17c-9.21,0-16.88-3.13-23-9.39
					c-6.13-6.26-9.19-13.98-9.19-23.16c0-9.43,3.09-17.27,9.29-23.54c6.19-6.26,13.95-9.39,23.28-9.39
					C375.45,596.62,381.58,598.7,386.99,602.88z"/>
				<path class="st0" d="M441.3,660.96l-7.28-17.84h-26.5l-7.47,17.84h-7.65l28.65-66.33l27.9,66.33H441.3z M410.23,636.47h21.09
					l-10.45-25.34L410.23,636.47z"/>
				<path class="st0" d="M457.73,597.66h6.91v56.65h17.17v6.64h-24.08V597.66z"/>
				<path class="st0" d="M491.13,597.66h6.91v56.65h17.17v6.64h-24.08V597.66z"/>
				<path class="st0" d="M524.54,597.66h6.91v63.3h-6.91V597.66z"/>
				<path class="st0" d="M579.6,635.81v-6.64h25.94v1.52c0,7.85-1.99,14.52-5.97,20.02c-5.54,7.59-13.25,11.39-23.14,11.39
					c-9.21,0-16.89-3.15-23.05-9.44c-6.16-6.29-9.24-14.06-9.24-23.3c0-9.24,3.09-17,9.29-23.3c6.19-6.29,13.92-9.44,23.19-9.44
					c7.34,0,13.69,2.09,19.04,6.26c2.74,2.15,5.13,4.65,7.19,7.5l-5.13,4.75c-1.8-2.59-3.76-4.78-5.88-6.55
					c-4.29-3.54-9.33-5.31-15.12-5.31c-7.4,0-13.5,2.5-18.29,7.5c-4.79,5-7.19,11.23-7.19,18.7c0,5.44,1.31,10.2,3.92,14.28
					c2.61,4.08,5.8,7.05,9.56,8.92c3.76,1.87,7.7,2.8,11.81,2.8c4.11,0,7.85-0.96,11.24-2.89c3.39-1.93,5.99-4.51,7.79-7.73
					c1.55-2.72,2.39-5.72,2.52-9.01H579.6z"/>
				<path class="st0" d="M618.23,597.66h9.99c6.72,0,11.76,1.17,15.12,3.51c4.54,3.1,6.81,7.78,6.81,14.04
					c0,4.87-1.45,8.92-4.34,12.15c-2.89,3.23-6.67,5-11.34,5.31l19.78,28.28h-8.4l-18.94-27.71h-1.77v27.71h-6.91V597.66z
					 M625.13,604.3v22.68h4.39c4.29,0,7.65-1.01,10.08-3.04c2.43-2.02,3.64-4.87,3.64-8.54c0-4.3-1.65-7.4-4.95-9.3
					c-2.12-1.2-5.1-1.8-8.96-1.8H625.13z"/>
				<path class="st0" d="M706.69,660.96l-7.28-17.84h-26.5l-7.47,17.84h-7.65l28.65-66.33l27.9,66.33H706.69z M675.62,636.47h21.09
					l-10.45-25.34L675.62,636.47z"/>
				<path class="st0" d="M723.12,597.66h11.29c7.09,0,12.32,1.49,15.68,4.46c3.79,3.29,5.69,7.81,5.69,13.57
					c0,4.93-1.63,9.13-4.9,12.57c-3.27,3.45-8.2,5.17-14.79,5.17h-6.07v27.52h-6.91V597.66z M730.02,604.3v22.49h5.69
					c4.11,0,7.33-1.01,9.66-3.04c2.33-2.02,3.5-4.84,3.5-8.45c0-7.34-4.57-11.01-13.72-11.01H730.02z"/>
				<path class="st0" d="M772.58,597.66v25.72h31.92v-25.72h6.91v63.3h-6.91v-30.94h-31.92v30.94h-6.91v-63.3H772.58z"/>
				<path class="st0" d="M840.6,660.96v-27.24l-20.44-36.06h8.03l15.86,28.28l16.05-28.28h8.03l-20.62,36.06v27.24H840.6z"/>
			</g>
			<g>
				<path class="st0" d="M669.58,478.59c1.06,44.7,38.62,35.07,56.86,61.24C717.62,508.6,680.52,521.36,669.58,478.59z"/>
			</g>
		</g>
	</g>
</g>
</svg>
